<svg version="1.0" preserveAspectRatio="xMidYMid meet" height="360" viewBox="0 0 360 269.999989" zoomAndPan="magnify" width="480" xmlns:xlink="http://www.w3.org/1999/xlink" xmlns="http://www.w3.org/2000/svg"><metadata></metadata><defs><clipPath id="cbcfde059d"><path clip-rule="nonzero" d="M 131.40625 60.800781 L 242 60.800781 L 242 171.398438 L 131.40625 171.398438 Z M 131.40625 60.800781"></path></clipPath><clipPath id="27ba79c1e2"><path clip-rule="nonzero" d="M 151.867188 82.511719 L 219.09375 82.511719 L 219.09375 149.738281 L 151.867188 149.738281 Z M 151.867188 82.511719"></path></clipPath></defs><g clip-path="url(#cbcfde059d)"><path fill-rule="nonzero" fill-opacity="1" d="M 163.019531 171.296875 C 154.632812 171.296875 146.730469 168.019531 140.761719 162.066406 C 134.777344 156.101562 131.480469 148.1875 131.46875 139.789062 L 131.40625 92.457031 C 131.394531 84.054688 134.675781 76.136719 140.640625 70.15625 C 146.605469 64.175781 154.515625 60.875 162.917969 60.863281 L 210.246094 60.800781 C 210.261719 60.800781 210.273438 60.800781 210.289062 60.800781 C 227.667969 60.800781 241.816406 74.929688 241.839844 92.3125 L 241.902344 139.644531 C 241.914062 148.042969 238.632812 155.964844 232.671875 161.945312 C 226.703125 167.925781 218.792969 171.226562 210.390625 171.234375 L 163.0625 171.296875 C 163.046875 171.296875 163.035156 171.296875 163.019531 171.296875 Z M 210.289062 75.804688 C 210.28125 75.804688 210.273438 75.804688 210.265625 75.804688 L 162.9375 75.867188 C 158.542969 75.875 154.398438 77.609375 151.261719 80.75 C 148.128906 83.894531 146.402344 88.042969 146.410156 92.4375 L 146.472656 139.769531 C 146.476562 144.160156 148.210938 148.308594 151.355469 151.441406 C 154.496094 154.578125 158.648438 156.285156 163.042969 156.296875 L 210.371094 156.234375 C 214.765625 156.226562 218.914062 154.492188 222.046875 151.351562 C 225.183594 148.207031 226.90625 144.058594 226.898438 139.664062 L 226.835938 92.332031 C 226.824219 83.214844 219.402344 75.804688 210.289062 75.804688 Z M 210.289062 75.804688" fill="#b3383c"></path></g><path fill-rule="nonzero" fill-opacity="1" d="M 210.382812 163.734375 L 163.050781 163.796875 C 149.824219 163.8125 138.988281 153.003906 138.96875 139.777344 L 138.910156 92.449219 C 138.890625 79.21875 149.699219 68.382812 162.925781 68.367188 L 210.257812 68.304688 C 223.484375 68.285156 234.320312 79.09375 234.339844 92.320312 L 234.402344 139.652344 C 234.417969 152.878906 223.609375 163.714844 210.382812 163.734375 Z M 210.382812 163.734375" fill="#ffe93a"></path><path fill-rule="nonzero" fill-opacity="1" d="M 159.113281 82.082031 C 159.113281 85.292969 156.511719 87.894531 153.300781 87.894531 C 150.089844 87.894531 147.484375 85.292969 147.484375 82.082031 C 147.484375 78.871094 150.089844 76.265625 153.300781 76.265625 C 156.511719 76.265625 159.113281 78.871094 159.113281 82.082031 Z M 159.113281 82.082031" fill="#ffffff"></path><g clip-path="url(#27ba79c1e2)"><path fill-rule="nonzero" fill-opacity="1" d="M 188.066406 82.511719 C 172.191406 82.511719 159.09375 94.222656 157.265625 109.890625 C 157.121094 110.21875 157.039062 110.574219 157.039062 110.953125 L 157.039062 115.539062 L 152.320312 122.421875 C 151.898438 123.035156 151.761719 123.808594 151.953125 124.53125 C 152.140625 125.253906 152.628906 125.863281 153.296875 126.195312 L 157.039062 128.066406 L 157.039062 139.398438 C 157.039062 140.824219 158.195312 141.980469 159.625 141.980469 L 167.382812 141.980469 L 167.382812 147.152344 C 167.382812 148.582031 168.539062 149.738281 169.96875 149.738281 L 208.753906 149.738281 C 210.179688 149.738281 211.339844 148.582031 211.339844 147.152344 L 211.339844 134.035156 C 216.347656 128.359375 219.09375 121.125 219.09375 113.539062 C 219.09375 96.429688 205.175781 82.511719 188.066406 82.511719 Z M 206.871094 131.257812 C 206.417969 131.734375 206.167969 132.371094 206.167969 133.03125 L 206.167969 144.566406 L 172.554688 144.566406 L 172.554688 139.398438 C 172.554688 137.96875 171.398438 136.8125 169.96875 136.8125 L 162.210938 136.8125 L 162.210938 126.46875 C 162.210938 125.488281 161.660156 124.59375 160.78125 124.15625 L 158.265625 122.898438 L 161.757812 117.800781 C 162.050781 117.375 162.210938 116.863281 162.210938 116.339844 L 162.210938 111.769531 C 162.273438 111.582031 162.316406 111.390625 162.332031 111.1875 C 163.542969 97.789062 174.605469 87.683594 188.066406 87.683594 C 202.324219 87.683594 213.921875 99.285156 213.921875 113.539062 C 213.921875 120.148438 211.417969 126.4375 206.871094 131.257812 Z M 192.480469 112.78125 L 190.652344 114.609375 L 190.652344 116.125 C 190.652344 119.460938 185.480469 119.453125 185.480469 116.125 L 185.480469 114.609375 L 183.652344 112.78125 C 181.296875 110.425781 184.957031 106.773438 187.308594 109.125 L 188.066406 109.882812 L 188.824219 109.125 C 191.183594 106.769531 194.832031 110.429688 192.480469 112.78125 Z M 188.066406 95.441406 C 179.511719 95.441406 172.554688 102.398438 172.554688 110.953125 C 172.554688 115.953125 174.992188 120.671875 179.070312 123.578125 C 179.859375 124.136719 180.3125 124.9375 180.3125 125.773438 L 180.3125 126.191406 C 180.3125 130.109375 183.09375 133.519531 186.78125 134.121094 C 187.210938 134.191406 187.632812 134.226562 188.058594 134.226562 C 189.894531 134.226562 191.679688 133.582031 193.089844 132.378906 C 194.828125 130.902344 195.824219 128.75 195.824219 126.46875 L 195.824219 125.773438 C 195.824219 124.9375 196.277344 124.136719 197.0625 123.578125 C 201.144531 120.671875 203.582031 115.953125 203.582031 110.953125 C 203.582031 102.398438 196.621094 95.441406 188.066406 95.441406 Z M 194.066406 119.367188 C 191.929688 120.886719 190.652344 123.28125 190.652344 125.773438 L 190.652344 126.46875 C 190.652344 127.230469 190.320312 127.949219 189.742188 128.441406 C 189.152344 128.9375 188.390625 129.144531 187.617188 129.015625 C 186.417969 128.820312 185.480469 127.582031 185.480469 126.191406 L 185.480469 125.773438 C 185.480469 123.28125 184.207031 120.886719 182.070312 119.367188 C 179.347656 117.425781 177.726562 114.28125 177.726562 110.953125 C 177.726562 105.25 182.363281 100.613281 188.066406 100.613281 C 193.773438 100.613281 198.410156 105.25 198.410156 110.953125 C 198.410156 114.28125 196.785156 117.425781 194.066406 119.367188 Z M 194.066406 119.367188" fill="#000000"></path></g></svg>